<?xml version="1.0" encoding="UTF-8" standalone="no"?>
<!DOCTYPE svg PUBLIC "-//W3C//DTD SVG 1.1//EN" "http://www.w3.org/Graphics/SVG/1.1/DTD/svg11.dtd">
<svg width="100%" height="100%" viewBox="0 0 66 60" version="1.1" xmlns="http://www.w3.org/2000/svg" xmlns:xlink="http://www.w3.org/1999/xlink" xml:space="preserve" xmlns:serif="http://www.serif.com/" style="fill-rule:evenodd;clip-rule:evenodd;stroke-linejoin:round;stroke-miterlimit:1.41421;">
    <path id="_-006ca2ff" serif:id="#006ca2ff" d="M35.632,2.144c3.193,-0.716 6.488,-0.999 9.754,-0.759c4.938,0.35 9.819,1.956 13.87,4.827c2.098,1.477 3.963,3.282 5.521,5.321c-1.574,-0.935 -3.279,-1.633 -5.022,-2.185c-3.681,-1.148 -7.633,-1.497 -11.44,-0.83c-0.689,0.127 -1.429,0.205 -2.007,0.637c-0.222,0.16 -0.407,0.427 -0.342,0.713c0.092,0.407 0.46,0.659 0.768,0.904c3.995,2.842 7.071,6.959 8.634,11.609c1.501,4.413 1.638,9.278 0.385,13.769c-0.498,1.799 -1.214,3.538 -2.126,5.167c-0.211,0.408 -0.488,0.779 -0.663,1.206c-0.784,1.404 -1.749,2.702 -2.797,3.92c-2.922,3.377 -6.593,6.071 -10.613,7.999c-3.202,1.594 -6.609,2.794 -10.125,3.469c-4.424,0.849 -9.037,0.858 -13.426,-0.204c-2.454,-0.591 -4.831,-1.513 -7.025,-2.763c-2.949,-1.676 -5.555,-3.951 -7.611,-6.649c2.02,1.186 4.233,2.024 6.5,2.598c3.252,0.813 6.674,0.992 9.982,0.416c0.655,-0.126 1.352,-0.199 1.917,-0.585c0.254,-0.163 0.483,-0.45 0.411,-0.769c-0.093,-0.407 -0.461,-0.657 -0.768,-0.901c-3.993,-2.845 -7.069,-6.961 -8.633,-11.609c-0.963,-2.835 -1.367,-5.856 -1.197,-8.844c0.206,-3.85 1.403,-7.636 3.419,-10.919c0.313,-0.675 0.724,-1.298 1.137,-1.914c3.061,-4.43 7.389,-7.909 12.213,-10.259c2.944,-1.489 6.062,-2.645 9.284,-3.365m-3.586,18.111c-2.798,0.279 -5.422,1.86 -6.995,4.187c-1.301,1.888 -1.883,4.249 -1.627,6.527c0.223,2.12 1.178,4.151 2.662,5.68c1.485,1.548 3.499,2.579 5.625,2.872c2.219,0.319 4.544,-0.158 6.449,-1.344c1.794,-1.102 3.211,-2.804 3.967,-4.769c0.826,-2.125 0.866,-4.542 0.112,-6.693c-0.693,-2.007 -2.072,-3.766 -3.849,-4.928c-1.852,-1.227 -4.137,-1.77 -6.344,-1.532Z" style="fill:none;stroke:#45AAFF;stroke-width:2px;"/>
</svg>
